<?xml version="1.0" encoding="UTF-8"?>
<svg xmlns="http://www.w3.org/2000/svg" xmlns:xlink="http://www.w3.org/1999/xlink" width="24" height="24" viewBox="0 0 24 20"  cx="12" cy="10" version="1.1">
<g id="surface1">
<path fill='#fff' d="M 20.824219 2.207031 L 3.175781 2.207031 C 1.425781 2.207031 0 3.628906 0 5.382812 L 0 18.617188 C 0 20.371094 1.425781 21.792969 3.175781 21.792969 L 20.824219 21.792969 C 22.574219 21.792969 24 20.371094 24 18.617188 L 24 5.382812 C 24 3.628906 22.574219 2.207031 20.824219 2.207031 Z M 22.0625 18.617188 C 22.0625 19.300781 21.507812 19.855469 20.824219 19.855469 L 3.175781 19.855469 C 2.492188 19.855469 1.9375 19.300781 1.9375 18.617188 L 1.9375 5.382812 C 1.9375 4.699219 2.492188 4.144531 3.175781 4.144531 L 20.824219 4.144531 C 21.507812 4.144531 22.0625 4.699219 22.0625 5.382812 Z M 22.0625 18.617188 "/>
<path fill='#fff' d="M 23.824219 4.824219 C 23.519531 4.386719 22.914062 4.28125 22.472656 4.585938 L 12 11.917969 L 1.527344 4.585938 C 1.085938 4.28125 0.480469 4.386719 0.175781 4.824219 C -0.132812 5.265625 -0.0234375 5.867188 0.414062 6.175781 L 11.445312 13.898438 C 11.609375 14.015625 11.804688 14.074219 12 14.074219 C 12.195312 14.074219 12.390625 14.015625 12.554688 13.898438 L 23.585938 6.175781 C 24.023438 5.867188 24.132812 5.265625 23.824219 4.824219 Z M 23.824219 4.824219 "/>
</g>
</svg>
