<svg width="1121" height="499" viewBox="0 0 1121 499" fill="none" xmlns="http://www.w3.org/2000/svg">
<g filter="url(#filter0_d_7003_2)">
<path d="M40.1887 102.293C32.6463 114.441 19.5532 141.566 27.52 152.876C37.4783 167.015 68.2063 163.105 81.6 185.459C94.9936 207.812 66.8385 247.487 106.592 257.113C146.345 266.738 166.424 292.205 187.107 279.928" stroke="white" stroke-opacity="0.6" stroke-width="3" stroke-linecap="round" stroke-linejoin="round" stroke-dasharray="9.83 9.83" shape-rendering="crispEdges"/>
</g>
<g filter="url(#filter1_d_7003_2)">
<path d="M606.221 204.669C613.974 216.684 627.539 243.576 619.771 255.024C610.061 269.334 579.269 265.961 566.268 288.545C553.266 311.129 582.109 350.307 542.53 360.624C502.951 370.942 483.319 396.755 462.426 384.842" stroke="white" stroke-opacity="0.6" stroke-width="3" stroke-linecap="round" stroke-linejoin="round" stroke-dasharray="9.83 9.83" shape-rendering="crispEdges"/>
</g>
<g filter="url(#filter2_d_7003_2)">
<path d="M584.954 132.41C587.222 118.279 623.651 97.654 639.781 103.103C656.19 108.646 677.21 122.14 701.977 114.075C726.745 106.01 731.492 57.5434 767.821 76.4226C804.149 95.3018 836.006 89.2832 843.577 112.152" stroke="white" stroke-opacity="0.6" stroke-width="3" stroke-linecap="round" stroke-linejoin="round" stroke-dasharray="9.83 9.83" shape-rendering="crispEdges"/>
</g>
<g filter="url(#filter3_d_7003_2)">
<path d="M1094.57 123.968C1096.04 138.19 1098.39 174.049 1086.29 180.697C1071.16 189.007 1045.25 171.981 1023.44 186.154C1001.63 200.326 1007.81 266.44 967.869 257.593C927.926 248.746 900.544 244.655 887.315 224.539" stroke="white" stroke-opacity="0.6" stroke-width="3" stroke-linecap="round" stroke-linejoin="round" stroke-dasharray="9.83 9.83" shape-rendering="crispEdges"/>
</g>
<g filter="url(#filter4_d_7003_2)">
<path d="M270.751 330.66C264.583 340.268 254.038 361.074 261.199 367.427C270.15 375.369 296.499 367.381 308.628 380.344C320.756 393.307 292.309 450.604 326.79 450.307C361.27 450.01 384.509 438.637 401.985 426.668" stroke="white" stroke-opacity="0.6" stroke-width="3" stroke-linecap="round" stroke-linejoin="round" stroke-dasharray="9.83 9.83" shape-rendering="crispEdges"/>
</g>
<defs>
<filter id="filter0_d_7003_2" x="0.153688" y="100.795" width="212.053" height="230.823" filterUnits="userSpaceOnUse" color-interpolation-filters="sRGB">
<feFlood flood-opacity="0" result="BackgroundImageFix"/>
<feColorMatrix in="SourceAlpha" type="matrix" values="0 0 0 0 0 0 0 0 0 0 0 0 0 0 0 0 0 0 127 0" result="hardAlpha"/>
<feOffset dy="23.5982"/>
<feGaussianBlur stdDeviation="11.7991"/>
<feComposite in2="hardAlpha" operator="out"/>
<feColorMatrix type="matrix" values="0 0 0 0 0.215686 0 0 0 0 0.203922 0 0 0 0 0.662745 0 0 0 0.3 0"/>
<feBlend mode="normal" in2="BackgroundImageFix" result="effect1_dropShadow_7003_2"/>
<feBlend mode="normal" in="SourceGraphic" in2="effect1_dropShadow_7003_2" result="shape"/>
</filter>
<filter id="filter1_d_7003_2" x="437.325" y="203.171" width="209.583" height="233.088" filterUnits="userSpaceOnUse" color-interpolation-filters="sRGB">
<feFlood flood-opacity="0" result="BackgroundImageFix"/>
<feColorMatrix in="SourceAlpha" type="matrix" values="0 0 0 0 0 0 0 0 0 0 0 0 0 0 0 0 0 0 127 0" result="hardAlpha"/>
<feOffset dy="23.5982"/>
<feGaussianBlur stdDeviation="11.7991"/>
<feComposite in2="hardAlpha" operator="out"/>
<feColorMatrix type="matrix" values="0 0 0 0 0.215686 0 0 0 0 0.203922 0 0 0 0 0.662745 0 0 0 0.3 0"/>
<feBlend mode="normal" in2="BackgroundImageFix" result="effect1_dropShadow_7003_2"/>
<feBlend mode="normal" in="SourceGraphic" in2="effect1_dropShadow_7003_2" result="shape"/>
</filter>
<filter id="filter2_d_7003_2" x="559.851" y="70.595" width="308.828" height="110.508" filterUnits="userSpaceOnUse" color-interpolation-filters="sRGB">
<feFlood flood-opacity="0" result="BackgroundImageFix"/>
<feColorMatrix in="SourceAlpha" type="matrix" values="0 0 0 0 0 0 0 0 0 0 0 0 0 0 0 0 0 0 127 0" result="hardAlpha"/>
<feOffset dy="23.5982"/>
<feGaussianBlur stdDeviation="11.7991"/>
<feComposite in2="hardAlpha" operator="out"/>
<feColorMatrix type="matrix" values="0 0 0 0 0.215686 0 0 0 0 0.203922 0 0 0 0 0.662745 0 0 0 0.3 0"/>
<feBlend mode="normal" in2="BackgroundImageFix" result="effect1_dropShadow_7003_2"/>
<feBlend mode="normal" in="SourceGraphic" in2="effect1_dropShadow_7003_2" result="shape"/>
</filter>
<filter id="filter3_d_7003_2" x="862.213" y="122.472" width="258.675" height="184.552" filterUnits="userSpaceOnUse" color-interpolation-filters="sRGB">
<feFlood flood-opacity="0" result="BackgroundImageFix"/>
<feColorMatrix in="SourceAlpha" type="matrix" values="0 0 0 0 0 0 0 0 0 0 0 0 0 0 0 0 0 0 127 0" result="hardAlpha"/>
<feOffset dy="23.5982"/>
<feGaussianBlur stdDeviation="11.7991"/>
<feComposite in2="hardAlpha" operator="out"/>
<feColorMatrix type="matrix" values="0 0 0 0 0.215686 0 0 0 0 0.203922 0 0 0 0 0.662745 0 0 0 0.3 0"/>
<feBlend mode="normal" in2="BackgroundImageFix" result="effect1_dropShadow_7003_2"/>
<feBlend mode="normal" in="SourceGraphic" in2="effect1_dropShadow_7003_2" result="shape"/>
</filter>
<filter id="filter4_d_7003_2" x="233.881" y="329.156" width="193.199" height="169.852" filterUnits="userSpaceOnUse" color-interpolation-filters="sRGB">
<feFlood flood-opacity="0" result="BackgroundImageFix"/>
<feColorMatrix in="SourceAlpha" type="matrix" values="0 0 0 0 0 0 0 0 0 0 0 0 0 0 0 0 0 0 127 0" result="hardAlpha"/>
<feOffset dy="23.5982"/>
<feGaussianBlur stdDeviation="11.7991"/>
<feComposite in2="hardAlpha" operator="out"/>
<feColorMatrix type="matrix" values="0 0 0 0 0.215686 0 0 0 0 0.203922 0 0 0 0 0.662745 0 0 0 0.3 0"/>
<feBlend mode="normal" in2="BackgroundImageFix" result="effect1_dropShadow_7003_2"/>
<feBlend mode="normal" in="SourceGraphic" in2="effect1_dropShadow_7003_2" result="shape"/>
</filter>
</defs>
</svg>
